<svg width="2448" height="2447" xmlns="http://www.w3.org/2000/svg" xmlns:xlink="http://www.w3.org/1999/xlink" xml:space="preserve" overflow="hidden"><g transform="translate(-4 -64)"><g><path d="M542 828.034C542 766.712 591.712 717 653.034 717L1496.97 717C1558.29 717 1608 766.712 1608 828.034L1608 1884.97C1608 1946.29 1558.29 1996 1496.97 1996L653.034 1996C591.712 1996 542 1946.29 542 1884.97Z" stroke="#000000" stroke-width="42.3958" stroke-linecap="butt" stroke-linejoin="miter" stroke-miterlimit="8" stroke-opacity="1" fill="#000000" fill-rule="evenodd" fill-opacity="1"/><rect x="660.5" y="829.5" width="830" height="1067" stroke="#000000" stroke-width="6.875" stroke-linecap="butt" stroke-linejoin="miter" stroke-miterlimit="8" stroke-opacity="1" fill="#FFFFFF" fill-opacity="1"/><path d="M955.047 479 1497.7 479 1911 892.298 1911 1758 840 1758 840 594.047C840 530.508 891.508 479 955.047 479Z" stroke="#000000" stroke-width="42.3958" stroke-linecap="butt" stroke-linejoin="miter" stroke-miterlimit="8" stroke-opacity="1" fill="#000000" fill-rule="evenodd" fill-opacity="1"/><path d="M954.5 605.5 1412.19 605.5 1787.5 980.808 1787.5 1618.5 954.5 1618.5 954.5 605.5Z" stroke="#042433" stroke-width="6.875" stroke-linecap="butt" stroke-linejoin="miter" stroke-miterlimit="8" stroke-opacity="1" fill="#FFFFFF" fill-rule="evenodd" fill-opacity="1"/><rect x="1099.5" y="1131.5" width="531" height="90.9998" stroke="#000000" stroke-width="33.2292" stroke-linecap="butt" stroke-linejoin="miter" stroke-miterlimit="8" stroke-opacity="1" fill="#000000" fill-opacity="1"/><rect x="1099.5" y="1376.5" width="531" height="91.0001" stroke="#000000" stroke-width="33.2292" stroke-linecap="butt" stroke-linejoin="miter" stroke-miterlimit="8" stroke-opacity="1" fill="#000000" fill-opacity="1"/></g></g></svg>