<svg width="2447" height="2447" xmlns="http://www.w3.org/2000/svg" xmlns:xlink="http://www.w3.org/1999/xlink" xml:space="preserve" overflow="hidden"><g transform="matrix(1 0 0 1 0 -64)"><g><path d="M596 592 1887 592 1363.18 1227.19 1887 1883 596 1883 596 592Z" stroke="#000000" stroke-width="169.583" stroke-linecap="butt" stroke-linejoin="miter" stroke-miterlimit="8" stroke-opacity="1" fill="none" fill-rule="evenodd"/><path d="M434 608C434 518.53 506.306 446 595.5 446 684.694 446 757 518.53 757 608 757 697.47 684.694 770 595.5 770 506.306 770 434 697.47 434 608Z" stroke="#000000" stroke-width="161.562" stroke-linecap="butt" stroke-linejoin="miter" stroke-miterlimit="8" stroke-opacity="1" fill="#000000" fill-rule="evenodd" fill-opacity="1"/><path d="M434 1867C434 1777.53 506.306 1705 595.5 1705 684.694 1705 757 1777.53 757 1867 757 1956.47 684.694 2029 595.5 2029 506.306 2029 434 1956.47 434 1867Z" stroke="#000000" stroke-width="161.562" stroke-linecap="butt" stroke-linejoin="miter" stroke-miterlimit="8" stroke-opacity="1" fill="#000000" fill-rule="evenodd" fill-opacity="1"/><path d="M1786 592C1786 502.53 1858.31 430 1947.5 430 2036.69 430 2109 502.53 2109 592 2109 681.47 2036.69 754 1947.5 754 1858.31 754 1786 681.47 1786 592Z" stroke="#000000" stroke-width="161.562" stroke-linecap="butt" stroke-linejoin="miter" stroke-miterlimit="8" stroke-opacity="1" fill="#000000" fill-rule="evenodd" fill-opacity="1"/><path d="M1786 1867C1786 1777.53 1858.31 1705 1947.5 1705 2036.69 1705 2109 1777.53 2109 1867 2109 1956.47 2036.69 2029 1947.5 2029 1858.31 2029 1786 1956.47 1786 1867Z" stroke="#000000" stroke-width="161.562" stroke-linecap="butt" stroke-linejoin="miter" stroke-miterlimit="8" stroke-opacity="1" fill="#000000" fill-rule="evenodd" fill-opacity="1"/><path d="M1241 1237.5C1241 1148.31 1313.53 1076 1403 1076 1492.47 1076 1565 1148.31 1565 1237.5 1565 1326.69 1492.47 1399 1403 1399 1313.53 1399 1241 1326.69 1241 1237.5Z" stroke="#000000" stroke-width="161.562" stroke-linecap="butt" stroke-linejoin="miter" stroke-miterlimit="8" stroke-opacity="1" fill="#000000" fill-rule="evenodd" fill-opacity="1"/></g></g></svg>