<svg width="2447" height="2448" xmlns="http://www.w3.org/2000/svg" xmlns:xlink="http://www.w3.org/1999/xlink" xml:space="preserve" overflow="hidden"><g transform="translate(-9 -27)"><g><rect x="596" y="608" width="1274" height="1291" stroke="#000000" stroke-width="161.562" stroke-linecap="butt" stroke-linejoin="miter" stroke-miterlimit="8" stroke-opacity="1" fill="none"/><path d="M1709 608C1709 518.53 1781.53 446 1871 446 1960.47 446 2033 518.53 2033 608 2033 697.47 1960.47 770 1871 770 1781.53 770 1709 697.47 1709 608Z" stroke="#000000" stroke-width="161.562" stroke-linecap="butt" stroke-linejoin="miter" stroke-miterlimit="8" stroke-opacity="1" fill="#000000" fill-rule="evenodd" fill-opacity="1"/><path d="M434 608C434 518.53 506.306 446 595.5 446 684.694 446 757 518.53 757 608 757 697.47 684.694 770 595.5 770 506.306 770 434 697.47 434 608Z" stroke="#000000" stroke-width="161.562" stroke-linecap="butt" stroke-linejoin="miter" stroke-miterlimit="8" stroke-opacity="1" fill="#000000" fill-rule="evenodd" fill-opacity="1"/><path d="M434 1900C434 1810.53 506.53 1738 596 1738 685.47 1738 758 1810.53 758 1900 758 1989.47 685.47 2062 596 2062 506.53 2062 434 1989.47 434 1900Z" stroke="#000000" stroke-width="161.562" stroke-linecap="butt" stroke-linejoin="miter" stroke-miterlimit="8" stroke-opacity="1" fill="#000000" fill-rule="evenodd" fill-opacity="1"/><path d="M1709 1900C1709 1810.53 1781.08 1738 1870 1738 1958.92 1738 2031 1810.53 2031 1900 2031 1989.47 1958.92 2062 1870 2062 1781.08 2062 1709 1989.47 1709 1900Z" stroke="#000000" stroke-width="161.562" stroke-linecap="butt" stroke-linejoin="miter" stroke-miterlimit="8" stroke-opacity="1" fill="#000000" fill-rule="evenodd" fill-opacity="1"/></g></g></svg>