<svg width="2822" height="2516" xmlns="http://www.w3.org/2000/svg" xmlns:xlink="http://www.w3.org/1999/xlink" xml:space="preserve" overflow="hidden"><g transform="translate(178 -64)"><g><path d="M321.623 1024.76 333.039 1002.85 345.252 980.83 357.977 959.224 371.202 938.04 384.917 917.279 399.11 896.949 413.77 877.051 428.887 857.591 444.448 838.572 460.444 819.998 476.863 801.872 493.695 784.199 510.927 766.982 528.55 750.225 546.552 733.931 564.922 718.104 583.65 702.747 602.725 687.863 622.136 673.457 641.872 659.53 661.922 646.088 682.277 633.133 702.925 620.667 723.855 608.696 745.057 597.221 766.522 586.246 788.236 575.776 810.192 565.811 832.378 556.357 854.783 547.416 877.398 538.992 900.212 531.088 923.214 523.708 946.394 516.854 969.742 510.53 993.247 504.74 1016.9 499.487 1040.69 494.775 1064.6 490.606 1088.64 486.985 1112.77 483.915 1137.01 481.399 1161.32 479.441 1185.72 478.045 1210.17 477.213 1234.68 476.951 1259.23 477.26 1283.82 478.146 1308.42 479.611 1333.04 481.659 1357.66 484.293 1382.27 487.518 1406.86 491.337 1431.41 495.753 1455.93 500.769 1480.39 506.391 1504.78 512.62 1529.11 519.46 1553.34 526.915 1577.48 534.989 1601.51 543.684 1625.42 553.003 1649.21 562.951 1672.88 573.546 1699.07 586.104 1724.83 599.36 1750.11 613.282 1774.89 627.857 1799.17 643.072 1822.94 658.914 1846.18 675.37 1868.88 692.427 1891.04 710.071 1912.64 728.289 1933.66 747.068 1954.11 766.396 1973.97 786.259 1996.2 809.801 2030.44 866.955 1951.81 914.064 1920.13 861.195 1926.13 869.11 1907.77 849.672 1908.68 850.605 1889.74 831.661 1890.67 832.566 1871.17 814.129 1872.12 815.007 1852.06 797.09 1853.04 797.939 1832.43 780.555 1833.43 781.375 1812.28 764.537 1813.31 765.328 1791.64 749.048 1792.68 749.809 1770.49 734.099 1771.56 734.831 1748.87 719.705 1749.95 720.406 1726.76 705.876 1727.87 706.546 1704.2 692.625 1705.32 693.263 1681.17 679.964 1682.31 680.571 1657.7 667.906 1658.86 668.48 1633.8 656.462 1634.89 656.971 1612.28 646.852 1613.31 647.3 1590.57 637.787 1591.61 638.208 1568.75 629.296 1569.8 629.691 1546.82 621.377 1547.88 621.745 1524.8 614.026 1525.86 614.367 1502.69 607.239 1503.75 607.553 1480.5 601.013 1481.57 601.3 1458.25 595.345 1459.32 595.605 1435.93 590.231 1437.01 590.464 1413.57 585.668 1414.65 585.875 1391.17 581.653 1392.25 581.834 1368.74 578.182 1369.82 578.337 1346.29 575.254 1347.37 575.382 1323.83 572.863 1324.9 572.965 1301.36 571.007 1302.44 571.083 1278.91 569.682 1279.98 569.734 1256.47 568.887 1257.54 568.913 1234.06 568.617 1235.13 568.618 1211.69 568.869 1212.75 568.845 1189.36 569.64 1190.42 569.592 1167.09 570.927 1168.15 570.854 1144.89 572.727 1145.95 572.63 1122.77 575.037 1123.82 574.915 1100.73 577.852 1101.77 577.707 1078.78 581.171 1079.83 581.002 1056.95 584.989 1057.98 584.796 1035.23 589.304 1036.26 589.088 1013.64 594.112 1014.66 593.872 992.178 599.41 993.197 599.147 970.866 605.195 971.88 604.908 949.71 611.463 950.718 611.152 928.72 618.211 929.722 617.877 907.906 625.435 908.901 625.077 887.278 633.132 888.266 632.751 866.845 641.299 867.826 640.894 846.617 649.932 847.591 649.504 826.605 659.028 827.571 658.576 806.818 668.583 807.776 668.107 787.266 678.594 788.216 678.094 767.959 689.057 768.9 688.533 748.906 699.969 749.838 699.422 730.117 711.327 731.04 710.755 711.603 723.126 712.515 722.53 693.372 735.365 694.274 734.744 675.435 748.038 676.326 747.393 657.8 761.142 658.68 760.473 640.478 774.675 641.345 773.981 623.478 788.633 624.332 787.915 606.809 803.012 607.65 802.27 590.481 817.809 591.308 817.042 574.504 833.021 575.315 832.23 558.886 848.644 559.681 847.83 543.637 864.676 544.416 863.838 528.767 881.113 529.529 880.251 514.285 897.952 515.028 897.067 500.199 915.19 500.923 914.283 486.52 932.824 487.223 931.895 473.256 950.852 473.938 949.901 460.416 969.269 461.077 968.297 448.011 988.075 448.648 987.082 436.049 1007.27 436.662 1006.25 424.539 1026.84 425.128 1025.81 413.491 1046.79 414.055 1045.74 402.914 1067.12ZM2174.18 745.223 2179.21 1257.63 1766.27 954.213Z" fill="#000000" fill-rule="nonzero" fill-opacity="1"/><path d="M2144.48 1450.76 2133.07 1472.68 2120.86 1494.72 2108.14 1516.34 2094.92 1537.54 2081.21 1558.31 2067.02 1578.66 2052.37 1598.57 2037.25 1618.04 2021.7 1637.07 2005.7 1655.66 1989.29 1673.8 1972.46 1691.48 1955.23 1708.71 1937.61 1725.48 1919.62 1741.79 1901.25 1757.63 1882.53 1773 1863.45 1787.89 1844.05 1802.31 1824.31 1816.25 1804.27 1829.7 1783.91 1842.67 1763.27 1855.14 1742.34 1867.13 1721.14 1878.61 1699.68 1889.6 1677.97 1900.08 1656.01 1910.05 1633.83 1919.52 1611.42 1928.47 1588.81 1936.9 1566 1944.81 1543 1952.2 1519.82 1959.06 1496.47 1965.4 1472.97 1971.19 1449.32 1976.46 1425.53 1981.18 1401.61 1985.35 1377.58 1988.98 1353.44 1992.06 1329.21 1994.58 1304.89 1996.54 1280.5 1997.94 1256.05 1998.78 1231.54 1999.05 1206.98 1998.74 1182.4 1997.86 1157.79 1996.4 1133.17 1994.36 1108.55 1991.73 1083.94 1988.51 1059.35 1984.69 1034.79 1980.28 1010.28 1975.26 985.816 1969.64 961.418 1963.41 937.094 1956.58 912.856 1949.12 888.715 1941.05 864.681 1932.35 840.766 1923.03 816.982 1913.08 793.301 1902.49 767.099 1889.92 741.33 1876.66 716.042 1862.73 691.247 1848.15 666.955 1832.92 643.178 1817.07 619.927 1800.6 597.212 1783.53 575.046 1765.88 553.439 1747.64 532.402 1728.85 511.946 1709.51 492.083 1689.63 469.857 1666.09 435.396 1608.66 513.995 1561.49 545.897 1614.65 539.925 1606.77 558.292 1626.23 557.385 1625.3 576.33 1644.25 575.399 1643.35 594.912 1661.8 593.957 1660.92 614.027 1678.85 613.049 1678 633.666 1695.4 632.666 1694.58 653.82 1711.43 652.797 1710.64 674.478 1726.93 673.434 1726.17 695.63 1741.89 694.566 1741.16 717.268 1756.29 716.183 1755.59 739.381 1770.13 738.277 1769.46 761.959 1783.39 760.837 1782.75 784.993 1796.06 783.853 1795.45 808.474 1808.12 807.317 1807.55 832.392 1819.57 831.294 1819.06 853.908 1829.18 852.873 1828.73 875.619 1838.25 874.576 1837.83 897.444 1846.74 896.393 1846.34 919.373 1854.66 918.317 1854.29 941.398 1862.01 940.336 1861.67 963.509 1868.79 962.442 1868.48 985.696 1875.02 984.626 1874.73 1007.95 1880.69 1006.88 1880.43 1030.26 1885.8 1029.19 1885.56 1052.63 1890.36 1051.55 1890.15 1075.03 1894.37 1073.95 1894.19 1097.46 1897.84 1096.38 1897.68 1119.91 1900.77 1118.83 1900.64 1142.37 1903.15 1141.3 1903.05 1164.84 1905 1163.76 1904.93 1187.29 1906.33 1186.22 1906.27 1209.73 1907.12 1208.66 1907.09 1232.14 1907.38 1231.07 1907.38 1254.51 1907.13 1253.44 1907.15 1276.84 1906.35 1275.77 1906.4 1299.1 1905.06 1298.04 1905.13 1321.3 1903.25 1320.25 1903.35 1343.43 1900.94 1342.38 1901.06 1365.47 1898.12 1364.42 1898.26 1387.41 1894.79 1386.36 1894.96 1409.24 1890.97 1408.2 1891.16 1430.96 1886.64 1429.93 1886.86 1452.55 1881.83 1451.53 1882.07 1474.01 1876.52 1472.99 1876.79 1495.32 1870.73 1494.3 1871.02 1516.47 1864.46 1515.46 1864.77 1537.46 1857.7 1536.46 1858.04 1558.27 1850.47 1557.28 1850.83 1578.9 1842.76 1577.91 1843.15 1599.33 1834.59 1598.35 1834.99 1619.55 1825.95 1618.58 1826.38 1639.56 1816.84 1638.6 1817.29 1659.35 1807.28 1658.39 1807.75 1678.9 1797.26 1677.95 1797.76 1698.2 1786.79 1697.26 1787.31 1717.25 1775.86 1716.32 1776.41 1736.04 1764.5 1735.12 1765.07 1754.55 1752.69 1753.64 1753.28 1772.78 1740.44 1771.88 1741.06 1790.71 1727.75 1789.82 1728.4 1808.34 1714.64 1807.47 1715.31 1825.66 1701.1 1824.8 1701.79 1842.66 1687.13 1841.81 1687.85 1859.33 1672.74 1858.49 1673.48 1875.65 1657.93 1874.83 1658.69 1891.63 1642.7 1890.81 1643.5 1907.24 1627.07 1906.44 1627.88 1922.48 1611.03 1921.71 1611.86 1937.35 1594.58 1936.59 1595.44 1951.83 1577.73 1951.09 1578.61 1965.91 1560.47 1965.19 1561.38 1979.59 1542.83 1978.89 1543.76 1992.85 1524.79 1992.17 1525.74 2005.68 1506.36 2005.03 1507.33 2018.09 1487.54 2017.45 1488.53 2030.04 1468.33 2029.43 1469.35 2041.55 1448.75 2040.96 1449.78 2052.59 1428.78 2052.03 1429.83 2063.17 1408.44ZM291.574 1730.28 286.767 1217.87 699.579 1521.47Z" fill="#000000" fill-rule="nonzero" fill-opacity="1"/><text fill="#000000" fill-opacity="1" font-family="Aptos,Aptos_MSFontService,sans-serif" font-style="normal" font-variant="normal" font-weight="700" font-stretch="normal" font-size="1095" text-anchor="start" direction="ltr" writing-mode="lr-tb" unicode-bidi="normal" text-decoration="none" transform="matrix(1 0 0 1 891.562 1619)">V</text></g></g></svg>