<svg width="2447" height="2448" xmlns="http://www.w3.org/2000/svg" xmlns:xlink="http://www.w3.org/1999/xlink" xml:space="preserve" overflow="hidden"><g transform="translate(-9 -27)"><g><path d="M422.5 545.708C422.5 486.499 470.499 438.5 529.708 438.5L1778.29 438.5C1837.5 438.5 1885.5 486.499 1885.5 545.708L1885.5 1794.29C1885.5 1853.5 1837.5 1901.5 1778.29 1901.5L529.708 1901.5C470.499 1901.5 422.5 1853.5 422.5 1794.29Z" stroke="#000000" stroke-width="6.875" stroke-linecap="butt" stroke-linejoin="miter" stroke-miterlimit="8" stroke-opacity="1" fill="#000000" fill-rule="evenodd" fill-opacity="1"/><path d="M601.5 1211.02C601.5 1188.64 619.643 1170.5 642.024 1170.5L1656.98 1170.5C1679.36 1170.5 1697.5 1188.64 1697.5 1211.02L1697.5 1682.98C1697.5 1705.36 1679.36 1723.5 1656.98 1723.5L642.024 1723.5C619.643 1723.5 601.5 1705.36 601.5 1682.98Z" stroke="#000000" stroke-width="6.875" stroke-linecap="butt" stroke-linejoin="miter" stroke-miterlimit="8" stroke-opacity="1" fill="#FFFFFF" fill-rule="evenodd" fill-opacity="1"/><path d="M1796.13 432.007C1824.82 427.32 1853.69 439.192 1872.38 463.361 1888.91 484.738 1895.49 513.203 1890.22 540.551 1890.58 601.368 1890.94 662.184 1891.3 723 1893.21 710.82 1760.67 590.539 1754.43 580.676 1746.27 567.787 1607.28 429.008 1594 431.659L1796.13 432.007Z" fill="#FFFFFF" fill-rule="evenodd" fill-opacity="1"/><path d="M1416.08 834 644.916 834C620.662 834 601 814.338 601 790.084L601 436 1460 436 1460 790.084C1460 814.338 1440.34 834 1416.08 834Z" fill="#FFFFFF" fill-rule="evenodd" fill-opacity="1"/><path d="M649.5 507.484C649.5 495.342 659.342 485.5 671.484 485.5L1402.52 485.5C1414.66 485.5 1424.5 495.342 1424.5 507.484L1424.5 763.516C1424.5 775.657 1414.66 785.5 1402.52 785.5L671.484 785.5C659.342 785.5 649.5 775.657 649.5 763.516Z" stroke="#000000" stroke-width="6.875" stroke-linecap="butt" stroke-linejoin="miter" stroke-miterlimit="8" stroke-opacity="1" fill="#000000" fill-rule="evenodd" fill-opacity="1"/><path d="M713.5 1262C713.5 1247.92 724.917 1236.5 739 1236.5L1568 1236.5C1582.08 1236.5 1593.5 1247.92 1593.5 1262L1593.5 1262C1593.5 1276.08 1582.08 1287.5 1568 1287.5L739 1287.5C724.917 1287.5 713.5 1276.08 713.5 1262Z" stroke="#000000" stroke-width="6.875" stroke-linecap="butt" stroke-linejoin="miter" stroke-miterlimit="8" stroke-opacity="1" fill="#000000" fill-rule="evenodd" fill-opacity="1"/><path d="M713.5 1616.5C713.5 1602.14 725.141 1590.5 739.5 1590.5L1567.5 1590.5C1581.86 1590.5 1593.5 1602.14 1593.5 1616.5 1593.5 1630.86 1581.86 1642.5 1567.5 1642.5L739.5 1642.5C725.141 1642.5 713.5 1630.86 713.5 1616.5Z" stroke="#000000" stroke-width="6.875" stroke-linecap="butt" stroke-linejoin="miter" stroke-miterlimit="8" stroke-opacity="1" fill="#000000" fill-rule="evenodd" fill-opacity="1"/><path d="M1406.5 1760C1406.5 1564.22 1565.22 1405.5 1761 1405.5 1956.78 1405.5 2115.5 1564.22 2115.5 1760 2115.5 1955.78 1956.78 2114.5 1761 2114.5 1565.22 2114.5 1406.5 1955.78 1406.5 1760Z" stroke="#000000" stroke-width="95.1042" stroke-linecap="butt" stroke-linejoin="miter" stroke-miterlimit="8" stroke-opacity="1" fill="#FFFFFF" fill-rule="evenodd" fill-opacity="1"/><path d="M1700.5 1841.01 1887.67 1636.5 2024.5 1636.5 1700.5 1990.5Z" stroke="#000000" stroke-width="6.875" stroke-linecap="butt" stroke-linejoin="miter" stroke-miterlimit="8" stroke-opacity="1" fill="#000000" fill-rule="evenodd" fill-opacity="1"/><path d="M0 85.5941 55.3629 0 152 0 0 235Z" stroke="#000000" stroke-width="6.875" stroke-linecap="butt" stroke-linejoin="miter" stroke-miterlimit="8" stroke-opacity="1" fill="#000000" fill-rule="evenodd" fill-opacity="1" transform="matrix(-1 0 0 1 1697.5 1755.5)"/><path d="M713.5 1448.5C713.5 1433.04 726.036 1420.5 741.5 1420.5L899.5 1420.5C914.964 1420.5 927.5 1433.04 927.5 1448.5 927.5 1463.96 914.964 1476.5 899.5 1476.5L741.5 1476.5C726.036 1476.5 713.5 1463.96 713.5 1448.5Z" stroke="#000000" stroke-width="6.875" stroke-linecap="butt" stroke-linejoin="miter" stroke-miterlimit="8" stroke-opacity="1" fill="#000000" fill-rule="evenodd" fill-opacity="1"/><text fill="#000000" fill-opacity="1" font-family="Aptos,Aptos_MSFontService,sans-serif" font-style="normal" font-variant="normal" font-weight="700" font-stretch="normal" font-size="330" text-anchor="start" direction="ltr" writing-mode="lr-tb" unicode-bidi="normal" text-decoration="none" transform="matrix(1 0 0 1 960.268 1573)">&lt;/&gt;</text><path d="M1424.5 1444C1424.5 1429.92 1435.92 1418.5 1450 1418.5L1568 1418.5C1582.08 1418.5 1593.5 1429.92 1593.5 1444 1593.5 1458.08 1582.08 1469.5 1568 1469.5L1450 1469.5C1435.92 1469.5 1424.5 1458.08 1424.5 1444Z" stroke="#000000" stroke-width="6.875" stroke-linecap="butt" stroke-linejoin="miter" stroke-miterlimit="8" stroke-opacity="1" fill="#000000" fill-rule="evenodd" fill-opacity="1"/></g></g></svg>