<svg width="2447" height="2448" xmlns="http://www.w3.org/2000/svg" xmlns:xlink="http://www.w3.org/1999/xlink" xml:space="preserve" overflow="hidden"><g transform="translate(-9 -27)"><g><path d="M756.955 1285.17C624.656 1246.53 560.458 1103.99 613.565 966.792 666.673 829.598 816.975 749.704 949.275 788.344 1017.25 808.195 1070.43 857.057 1095.56 922.753" stroke="#000000" stroke-width="50.4167" stroke-linecap="butt" stroke-linejoin="miter" stroke-miterlimit="8" stroke-opacity="1" fill="none" fill-rule="evenodd"/><path d="M767.38 1450.01C528.653 1441.15 363.174 1238.6 397.773 997.588 432.371 756.579 653.945 568.381 892.671 577.237 1088.48 584.501 1240.75 723.74 1263.82 916.609" stroke="#000000" stroke-width="50.4167" stroke-linecap="butt" stroke-linejoin="miter" stroke-miterlimit="8" stroke-opacity="1" fill="none" fill-rule="evenodd"/><path d="M851.5 270C851.5 265.858 854.858 262.5 859 262.5L889 262.5C893.142 262.5 896.5 265.858 896.5 270L896.5 525C896.5 529.142 893.142 532.5 889 532.5L859 532.5C854.858 532.5 851.5 529.142 851.5 525Z" stroke="#000000" stroke-width="6.875" stroke-linecap="butt" stroke-linejoin="miter" stroke-miterlimit="8" stroke-opacity="1" fill="#000000" fill-rule="evenodd" fill-opacity="1"/><path d="M1211.86 352.721C1213.82 349.078 1218.36 347.714 1222 349.674L1248.39 363.869C1252.03 365.829 1253.4 370.372 1251.43 374.015L1130.77 598.279C1128.81 601.922 1124.27 603.286 1120.63 601.326L1094.24 587.13C1090.6 585.17 1089.24 580.628 1091.2 576.985Z" stroke="#000000" stroke-width="6.875" stroke-linecap="butt" stroke-linejoin="miter" stroke-miterlimit="8" stroke-opacity="1" fill="#000000" fill-rule="evenodd" fill-opacity="1"/><path d="M475.158 385.771C473.004 382.239 474.12 377.63 477.652 375.476L503.229 359.874C506.761 357.719 511.37 358.836 513.524 362.368L646.143 579.776C648.297 583.307 647.18 587.917 643.649 590.071L618.072 605.673C614.54 607.827 609.931 606.711 607.777 603.179Z" stroke="#000000" stroke-width="6.875" stroke-linecap="butt" stroke-linejoin="miter" stroke-miterlimit="8" stroke-opacity="1" fill="#000000" fill-rule="evenodd" fill-opacity="1"/><path d="M2252.84 1563.21C2283.42 1594.93 2282.5 1645.43 2250.79 1676.01L1718.27 2189.47C1686.55 2220.05 1636.05 2219.13 1605.47 2187.41L1567.19 2147.71C1536.61 2116 1537.53 2065.49 1569.25 2034.91L2101.77 1521.46C2133.48 1490.88 2183.99 1491.8 2214.57 1523.51Z" stroke="#000000" stroke-width="6.875" stroke-linecap="butt" stroke-linejoin="miter" stroke-miterlimit="8" stroke-opacity="1" fill="#000000" fill-rule="evenodd" fill-opacity="1"/><path d="M2055.88 1524.38C1972.52 1351.8 1885.45 1180.9 1821.71 1096 1757.96 1011.11 1709.21 1015.02 1673.43 1015.01 1637.64 1015 1627.19 1083.08 1607 1095.95 1586.81 1108.82 1573.72 1088.82 1552.3 1092.22 1530.87 1095.62 1496.41 1101.4 1478.46 1116.35 1460.51 1131.31 1449.71 1166.04 1444.6 1181.94 1439.49 1197.85 1450.96 1207.97 1447.82 1211.78 1444.68 1215.6 1441.84 1207.35 1425.76 1204.81 1409.69 1202.27 1372.93 1190.65 1351.36 1196.55 1329.78 1202.45 1308.84 1225.78 1296.33 1240.19 1283.82 1254.61 1278.22 1271.77 1276.31 1283.03 1274.39 1294.29 1285.6 1305.89 1284.82 1307.77 1284.05 1309.64 1278.04 1300.69 1271.66 1294.29 1265.29 1287.89 1254.22 1276.43 1246.57 1269.35 1238.92 1262.26 1249.98 1276.26 1225.74 1251.79 1201.49 1227.32 1101.1 1122.53 1101.1 1122.53 1053.63 1074.18 986.52 992.207 940.9 961.678 895.28 931.15 856.455 933.288 827.383 939.357 798.312 945.426 777.313 976.654 766.468 998.092 755.622 1019.53 756.881 1047.34 762.31 1067.99 767.74 1088.64 788.611 1108.52 799.044 1121.99 809.478 1135.46 824.912 1148.82 824.912 1148.82L923.677 1251.25 1090.64 1424.41 1168.24 1504.89 1229.38 1568.3C1241.09 1581.32 1234.18 1578.57 1238.49 1583.05 1242.8 1587.52 1255.25 1595.12 1255.25 1595.12 1257.94 1598.8 1262.64 1603.68 1254.65 1605.11 1246.66 1606.54 1233.43 1605.18 1207.3 1603.7 1181.17 1602.23 1129.12 1595.94 1097.89 1596.25 1066.67 1596.55 1039.61 1596.75 1019.95 1605.52 1000.28 1614.28 988.412 1632 979.922 1648.81 971.432 1665.63 967.303 1686.08 969.007 1706.4 970.711 1726.72 975.109 1750.72 990.147 1770.73 1005.18 1790.74 1025.47 1813.54 1059.23 1826.48 1093 1839.41 1140.89 1838.73 1192.75 1848.34 1244.61 1857.95 1312.2 1868.86 1370.38 1884.15 1428.55 1899.43 1510.84 1929.11 1541.82 1940.04 1572.79 1950.96 1556.22 1949.68 1556.22 1949.68 1560.24 1952.08 1565.93 1954.44 1565.93 1954.44 1569.6 1955.6 1578.28 1956.65 1578.28 1956.65 1583.23 1957.37 1589.7 1960.54 1595.63 1958.74 1601.56 1956.94 1605.09 1953.54 1613.87 1945.86 1622.65 1938.18 1648.3 1912.66 1648.3 1912.66L1677.44 1884.57C1803.58 1764.51 1929.73 1644.45 2055.88 1524.38Z" stroke="#000000" stroke-width="6.875" stroke-linecap="butt" stroke-linejoin="miter" stroke-miterlimit="8" stroke-opacity="1" fill="#000000" fill-rule="evenodd" fill-opacity="1"/></g></g></svg>