<svg width="2538" height="2448" xmlns="http://www.w3.org/2000/svg" xmlns:xlink="http://www.w3.org/1999/xlink" xml:space="preserve" overflow="hidden"><g transform="translate(82 -27)"><g><path d="M147.144 194.339 160.972 179.669 175.704 164.814 190.731 150.409 206.046 136.453 221.638 122.95 237.498 109.9 253.616 97.3043 269.982 85.1637 286.587 73.4794 303.421 62.2522 320.475 51.4828 337.739 41.1722 355.205 31.3206 372.861 21.9291 390.699 12.9978 408.71 4.52742 426.884-3.48168 445.213-11.0292 463.686-18.1146 482.295-24.7376 501.03-30.8979 519.883-36.5954 538.843-41.8293 557.904-46.6 577.055-50.9066 596.287-54.7492 615.592-58.1273 634.96-61.0408 654.383-63.4893 673.853-65.4724 693.359-66.9899 712.894-68.0415 732.448-68.6266 752.013-68.7451 771.58-68.3965 791.14-67.5803 810.684-66.2961 830.203-64.5436 849.689-62.3222 869.133-59.6315 888.525-56.4711 907.857-52.8403 927.119-48.7389 946.303-44.1662 965.4-39.122 984.4-33.6056 1003.29-27.6167 1022.07-21.1546 1040.73-14.2195 1059.25-6.81068 1077.63 1.07223 1095.86 9.42925 1113.92 18.2608 1131.82 27.5671 1149.53 37.3478 1167.05 47.6032 1184.37 58.3334 1201.49 69.5379 1218.38 81.2168 1235.05 93.3695 1251.47 105.996 1267.65 119.095 1283.57 132.667 1299.22 146.71 1314.52 161.145 1329.36 175.886 1343.76 190.924 1357.7 206.248 1371.2 221.851 1384.24 237.721 1396.82 253.848 1408.96 270.224 1420.63 286.84 1431.85 303.684 1442.61 320.748 1452.91 338.023 1462.76 355.498 1472.14 373.165 1481.07 391.013 1489.53 409.034 1497.53 427.218 1505.08 445.557 1512.16 464.04 1518.77 482.658 1524.93 501.404 1530.62 520.266 1535.85 539.237 1540.62 558.308 1544.92 577.468 1548.76 596.711 1552.14 616.025 1555.05 635.404 1557.49 654.837 1559.47 674.316 1560.99 693.832 1562.04 713.376 1562.63 732.941 1562.74 752.515 1562.4 772.092 1561.58 791.662 1560.3 811.216 1558.55 830.745 1556.33 850.241 1553.64 869.694 1550.48 889.096 1546.85 908.437 1542.76 927.71 1538.19 946.904 1533.15 966.011 1527.63 985.021 1521.65 1003.93 1515.19 1022.72 1508.26 1041.38 1500.86 1059.91 1492.98 1078.3 1484.63 1096.54 1475.81 1114.61 1466.51 1132.52 1456.74 1150.24 1446.49 1167.77 1435.77 1185.11 1424.57 1202.23 1412.9 1219.13 1400.76 1235.81 1388.14 1252.25 1375.05 1268.44 1361.49 1284.37 1347.45 1300.03 1333.03 1315.33 1318.3 1330.19 1303.27 1344.59 1287.95 1358.55 1272.36 1372.05 1256.5 1385.1 1240.38 1397.7 1224.02 1409.84 1207.41 1421.52 1190.58 1432.75 1173.53 1443.52 1156.26 1453.83 1138.8 1463.68 1121.14 1473.07 1103.3 1482 1085.29 1490.47 1067.12 1498.48 1048.79 1506.03 1030.31 1513.11 1011.71 1519.74 992.97 1525.9 974.118 1531.59 955.157 1536.83 936.096 1541.6 916.946 1545.91 897.713 1549.75 878.408 1553.13 859.04 1556.04 839.617 1558.49 820.147 1560.47 800.641 1561.99 781.106 1563.04 761.552 1563.63 726.484 1563.84 646.261 1524.07 707.329 1400.88 772.925 1433.39 741.975 1426.24 759.899 1426.13 758.259 1426.16 776.174 1425.63 774.534 1425.7 792.431 1424.73 790.794 1424.84 808.665 1423.45 807.03 1423.6 824.866 1421.78 823.234 1421.97 841.027 1419.72 839.4 1419.95 857.142 1417.28 855.518 1417.54 873.201 1414.45 871.582 1414.75 889.197 1411.23 887.582 1411.58 905.122 1407.63 903.514 1408.01 920.969 1403.64 919.368 1404.07 936.73 1399.27 935.136 1399.73 952.398 1394.52 950.811 1395.02 967.964 1389.38 966.386 1389.92 983.422 1383.85 981.854 1384.43 998.764 1377.95 997.206 1378.57 1013.98 1371.66 1012.44 1372.32 1029.07 1364.99 1027.54 1365.69 1044.02 1357.93 1042.5 1358.67 1058.82 1350.5 1057.32 1351.28 1073.47 1342.68 1071.98 1343.5 1087.96 1334.48 1086.49 1335.34 1102.29 1325.91 1100.83 1326.8 1116.44 1316.95 1115 1317.88 1130.41 1307.6 1128.99 1308.58 1144.19 1297.88 1142.79 1298.89 1157.77 1287.78 1156.4 1288.82 1171.15 1277.29 1169.8 1278.37 1184.33 1266.42 1183 1267.54 1197.28 1255.17 1195.98 1256.33 1210.02 1243.54 1208.75 1244.73 1222.52 1231.53 1221.28 1232.75 1234.78 1219.13 1233.57 1220.38 1246.8 1206.34 1245.63 1207.62 1258.5 1193.26 1257.35 1194.57 1269.79 1179.96 1268.68 1181.3 1280.67 1166.47 1279.6 1167.83 1291.16 1152.77 1290.12 1154.16 1301.24 1138.89 1300.24 1140.3 1310.93 1124.82 1309.96 1126.26 1320.21 1110.58 1319.29 1112.04 1329.1 1096.17 1328.21 1097.65 1337.59 1081.6 1336.75 1083.09 1345.69 1066.87 1344.88 1068.38 1353.39 1052 1352.62 1053.52 1360.7 1036.98 1359.97 1038.52 1367.61 1021.83 1366.93 1023.38 1374.13 1006.55 1373.49 1008.12 1380.26 991.157 1379.65 992.733 1386 975.648 1385.43 977.234 1391.34 960.035 1390.81 961.629 1396.29 944.324 1395.81 945.926 1400.85 928.523 1400.41 930.132 1405.02 912.638 1404.62 914.253 1408.8 896.678 1408.44 898.299 1412.19 880.65 1411.86 882.276 1415.19 864.562 1414.9 866.191 1417.79 848.42 1417.55 850.052 1420.01 832.233 1419.8 833.868 1421.84 816.009 1421.67 817.646 1423.27 799.755 1423.15 801.392 1424.32 783.477 1424.23 785.117 1424.98 767.187 1424.93 768.826 1425.25 750.888 1425.24 752.527 1425.13 734.591 1425.16 736.229 1424.63 718.303 1424.7 719.94 1423.73 702.031 1423.84 703.666 1422.45 685.783 1422.6 687.416 1420.78 669.568 1420.97 671.197 1418.73 653.392 1418.95 655.018 1416.28 637.264 1416.55 638.886 1413.45 621.192 1413.76 622.809 1410.24 605.181 1410.58 606.794 1406.64 589.243 1407.02 590.849 1402.66 573.382 1403.08 574.982 1398.29 557.608 1398.75 559.201 1393.53 541.927 1394.03 543.512 1388.4 526.347 1388.94 527.924 1382.88 510.877 1383.45 512.443 1376.97 495.522 1377.59 497.079 1370.69 480.291 1371.34 481.837 1364.02 465.192 1364.72 466.725 1356.97 450.23 1357.71 451.75 1349.54 435.415 1350.31 436.92 1341.73 420.752 1342.54 422.243 1333.53 406.25 1334.39 407.724 1324.96 391.915 1325.85 393.371 1316 377.755 1316.94 379.192 1306.67 363.775 1307.64 365.193 1296.95 349.986 1297.96 351.382 1286.85 336.391 1287.9 337.765 1276.37 322.999 1277.45 324.349 1265.51 309.817 1266.63 311.142 1254.27 296.852 1255.42 298.15 1242.65 284.11 1243.83 285.38 1230.64 271.599 1231.86 272.841 1218.25 259.326 1219.5 260.537 1205.47 247.297 1206.75 248.475 1192.4 235.594 1193.71 236.741 1179.11 224.298 1180.45 225.41 1165.62 213.405 1166.99 214.482 1151.94 202.915 1153.33 203.955 1138.07 192.825 1139.48 193.828 1124.01 183.134 1125.44 184.1 1109.78 173.843 1111.23 174.77 1095.38 164.949 1096.85 165.838 1080.82 156.451 1082.31 157.301 1066.1 148.35 1067.61 149.16 1051.24 140.644 1052.76 141.414 1036.23 133.332 1037.77 134.062 1021.1 126.415 1022.65 127.104 1005.83 119.891 1007.4 120.54 990.447 113.76 992.025 114.368 974.952 108.021 976.539 108.589 959.351 102.675 960.947 103.203 943.653 97.7209 945.257 98.2079 927.865 93.1583 929.476 93.6049 911.994 88.9871 913.611 89.3934 896.048 85.207 897.67 85.5731 880.033 81.8177 881.661 82.1438 863.958 78.8191 865.59 79.1052 847.831 76.2109 849.466 76.4572 831.658 73.9929 833.295 74.1995 815.448 72.1649 817.087 72.3318 799.207 70.7266 800.848 70.8541 782.945 69.6778 784.586 69.7659 766.668 69.0182 768.309 69.0671 750.384 68.7477 752.025 68.7573 734.101 68.8659 735.741 68.8363 717.827 69.3725 719.466 69.3038 701.569 70.2672 703.206 70.1595 685.336 71.5497 686.97 71.4029 669.134 73.2197 670.766 73.0338 652.973 75.2768 654.601 75.0518 636.858 77.7206 638.482 77.4564 620.799 80.5507 622.419 80.2473 604.803 83.7668 606.418 83.4241 588.878 87.3684 590.486 86.9864 573.031 91.3552 574.633 90.9337 557.27 95.7266 558.865 95.2657 541.603 100.482 543.189 99.9819 526.036 105.622 527.614 105.082 510.578 111.145 512.146 110.565 495.236 117.051 496.794 116.432 480.018 123.34 481.564 122.681 464.93 130.012 466.464 129.313 449.981 137.065 451.502 136.327 435.177 144.5 436.684 143.722 420.526 152.317 422.017 151.5 406.035 160.515 407.51 159.659 391.711 169.094 393.168 168.199 377.562 178.054 379 177.121 363.593 187.396 365.011 186.424 349.814 197.119 351.21 196.11 336.229 207.223 337.603 206.176 322.847 217.708 324.197 216.626 309.674 228.575 310.999 227.457 296.718 239.825 298.016 238.672 283.985 251.457 285.255 250.27 271.483 263.472 272.723 262.253 259.217 275.872 260.428 274.62 247.197 288.656ZM575.279 1798.01 131.198 1170.63 899.555 1191.79Z" fill="#000000" fill-rule="nonzero" fill-opacity="1" transform="matrix(1 0 0 -1 486 1985)"/></g></g></svg>