<svg width="2447" height="2448" xmlns="http://www.w3.org/2000/svg" xmlns:xlink="http://www.w3.org/1999/xlink" xml:space="preserve" overflow="hidden"><g transform="translate(-9 -27)"><g><path d="M602.5 902.5C602.5 603.714 844.714 361.5 1143.5 361.5 1442.29 361.5 1684.5 603.714 1684.5 902.5 1684.5 1201.29 1442.29 1443.5 1143.5 1443.5 844.714 1443.5 602.5 1201.29 602.5 902.5Z" stroke="#000000" stroke-width="6.875" stroke-linecap="butt" stroke-linejoin="miter" stroke-miterlimit="8" stroke-opacity="1" fill="#000000" fill-rule="evenodd" fill-opacity="1"/><path d="M790 855.413 1091.41 855.413 1091.41 554 1194.59 554 1194.59 855.413 1496 855.413 1496 958.588 1194.59 958.588 1194.59 1260 1091.41 1260 1091.41 958.588 790 958.588Z" fill="#FFFFFF" fill-rule="evenodd" fill-opacity="1"/><path d="M1782.76 2149.34 1355.56 1387.89 1505.9 1281.24 2083.43 1936.03Z" stroke="#000000" stroke-width="6.875" stroke-linecap="butt" stroke-linejoin="miter" stroke-miterlimit="8" stroke-opacity="1" fill="#000000" fill-rule="evenodd" fill-opacity="1"/></g></g></svg>