<svg width="2447" height="2448" xmlns="http://www.w3.org/2000/svg" xmlns:xlink="http://www.w3.org/1999/xlink" xml:space="preserve" overflow="hidden"><g transform="translate(-9 -27)"><g><path d="M600.5 925.5C600.5 626.714 842.714 384.5 1141.5 384.5 1440.29 384.5 1682.5 626.714 1682.5 925.5 1682.5 1224.29 1440.29 1466.5 1141.5 1466.5 842.714 1466.5 600.5 1224.29 600.5 925.5Z" stroke="#000000" stroke-width="6.875" stroke-linecap="butt" stroke-linejoin="miter" stroke-miterlimit="8" stroke-opacity="1" fill="#000000" fill-rule="evenodd" fill-opacity="1"/><path d="M1782.76 2149.34 1355.56 1387.89 1505.9 1281.24 2083.43 1936.03Z" stroke="#000000" stroke-width="6.875" stroke-linecap="butt" stroke-linejoin="miter" stroke-miterlimit="8" stroke-opacity="1" fill="#000000" fill-rule="evenodd" fill-opacity="1"/><path d="M774 892C774 877.641 785.641 866 800.001 866L1477 866C1491.36 866 1503 877.641 1503 892L1503 995.999C1503 1010.36 1491.36 1022 1477 1022L800.001 1022C785.641 1022 774 1010.36 774 995.999Z" fill="#FFFFFF" fill-rule="evenodd" fill-opacity="1"/></g></g></svg>